<?xml version="1.0" standalone="no"?>
<!DOCTYPE svg PUBLIC "-//W3C//DTD SVG 20010904//EN"
 "http://www.w3.org/TR/2001/REC-SVG-20010904/DTD/svg10.dtd">
<svg version="1.0" xmlns="http://www.w3.org/2000/svg"
 width="440.000000pt" height="440.000000pt" viewBox="0 0 440.000000 440.000000"
 preserveAspectRatio="xMidYMid meet">
<metadata>
Created by potrace 1.14, written by Peter Selinger 2001-2017
</metadata>
<g transform="translate(0.000000,440.000000) scale(0.100000,-0.100000)"
fill="#000000" stroke="none">
<path d="M2035 3950 c-690 -74 -1277 -563 -1478 -1230 -55 -182 -71 -290 -71
-495 0 -99 6 -216 13 -260 19 -123 72 -313 94 -341 40 -51 45 -50 398 37 l329
81 0 464 c0 512 -2 491 64 552 l36 32 0 134 c0 108 -3 136 -16 146 -8 8 -14
25 -12 39 3 26 4 26 88 26 82 0 85 -1 88 -24 2 -13 -1 -28 -7 -34 -7 -7 -11
-65 -11 -155 l0 -143 30 -26 c61 -51 60 -42 60 -509 0 -384 2 -426 16 -420 9
3 20 6 25 6 5 0 9 142 9 345 l0 345 28 31 c19 21 41 34 68 38 30 5 40 11 42
29 3 20 9 22 72 22 64 0 69 -2 72 -22 2 -16 11 -24 28 -26 46 -5 81 -25 95
-53 12 -23 15 -83 15 -308 0 -157 4 -282 9 -285 5 -4 16 -3 25 0 14 5 16 53
16 445 0 346 3 446 13 472 8 18 35 57 62 87 67 77 78 108 73 204 l-3 81 88 3
c75 2 88 0 94 -15 4 -9 2 -18 -5 -21 -7 -2 -12 -26 -12 -60 0 -68 32 -143 80
-187 18 -16 43 -52 56 -80 24 -50 24 -52 24 -427 0 -366 1 -378 19 -378 19 0
19 12 23 278 4 317 7 334 92 416 56 55 66 90 66 234 l0 112 95 0 95 0 0 -119
c0 -66 5 -132 10 -147 6 -15 35 -53 65 -86 78 -83 85 -115 85 -360 0 -185 1
-199 18 -194 9 3 161 41 337 85 176 43 332 84 346 91 32 14 59 59 59 95 0 46
-50 253 -82 339 -128 348 -377 662 -685 863 -180 118 -424 215 -636 253 -128
24 -378 34 -502 20z m1014 -406 c23 -5 21 -8 -35 -65 -32 -32 -66 -59 -74 -59
-9 0 -44 9 -79 21 -34 12 -64 19 -67 17 -2 -3 3 -27 11 -54 8 -27 15 -50 15
-51 0 -2 -6 -3 -14 -3 -14 0 -26 42 -26 91 0 16 5 29 10 29 6 0 9 4 8 10 -2 5
22 25 52 44 51 32 60 34 115 30 33 -3 71 -7 84 -10z m-550 -28 c43 -27 50 -35
35 -39 -13 -3 -11 -5 9 -6 27 -1 28 -3 22 -38 -11 -70 -15 -83 -26 -83 -7 0
-9 10 -6 23 3 12 8 37 12 54 l7 33 -73 -25 -73 -25 -58 57 c-32 31 -54 60 -50
64 7 7 53 14 117 17 19 1 51 -11 84 -32z m553 -59 c3 -17 -8 -37 -43 -75 l-47
-51 -56 22 c-41 16 -58 28 -63 45 -3 13 -3 25 -1 27 2 3 28 -3 56 -12 l53 -17
42 42 c23 23 45 42 48 42 4 0 9 -10 11 -23z m-692 -22 c38 -39 50 -41 110 -20
l42 15 -7 -28 c-4 -15 -7 -27 -8 -28 -1 0 -24 -10 -52 -22 l-50 -21 -42 44
c-28 28 -43 53 -43 69 0 35 10 33 50 -9z m-822 -1 c28 -4 52 -10 52 -13 0 -4
-28 -31 -61 -60 l-61 -54 -67 21 c-37 12 -70 22 -74 22 -3 0 1 -23 9 -51 9
-28 13 -54 10 -57 -12 -12 -25 15 -32 66 -6 44 -4 52 10 52 9 0 15 5 14 10 -5
16 84 69 117 69 17 1 54 -2 83 -5z m35 -85 c4 -16 -6 -35 -36 -70 -23 -27 -49
-49 -57 -49 -34 1 -105 45 -108 68 -4 26 -7 26 52 6 l48 -17 41 42 c23 22 45
41 48 41 4 0 9 -10 12 -21z m1455 -152 l3 -58 -103 3 -103 3 -3 44 c-5 72 -5
72 105 69 l98 -3 3 -58z m-1028 -164 c33 -21 60 -41 60 -44 0 -3 -36 -17 -81
-29 l-80 -23 -54 53 c-58 57 -58 57 -70 -12 -5 -35 -25 -54 -25 -25 0 24 32
107 39 103 4 -3 13 -1 21 5 8 5 41 9 73 9 49 0 66 -5 117 -37z m-140 -78 l35
-34 49 14 c64 19 68 19 64 -7 -2 -16 -18 -28 -62 -46 l-59 -23 -38 37 c-27 26
-39 47 -39 66 0 36 7 35 50 -7z m138 -232 l-3 -48 -95 0 -95 0 -3 48 -3 47
101 0 101 0 -3 -47z"/>
<path d="M2910 3500 c0 -5 5 -10 10 -10 6 0 10 5 10 10 0 6 -4 10 -10 10 -5 0
-10 -4 -10 -10z"/>
<path d="M2878 3493 c7 -3 16 -2 19 1 4 3 -2 6 -13 5 -11 0 -14 -3 -6 -6z"/>
<path d="M2818 3483 c6 -2 18 -2 25 0 6 3 1 5 -13 5 -14 0 -19 -2 -12 -5z"/>
<path d="M2428 3493 c7 -3 16 -2 19 1 4 3 -2 6 -13 5 -11 0 -14 -3 -6 -6z"/>
<path d="M2478 3483 c6 -2 18 -2 25 0 6 3 1 5 -13 5 -14 0 -19 -2 -12 -5z"/>
<path d="M1425 3390 c-18 -8 -17 -9 8 -9 15 -1 27 4 27 9 0 12 -8 12 -35 0z"/>
<path d="M1368 3373 c7 -3 16 -2 19 1 4 3 -2 6 -13 5 -11 0 -14 -3 -6 -6z"/>
<path d="M1835 3040 c11 -5 27 -9 35 -9 9 0 8 4 -5 9 -11 5 -27 9 -35 9 -9 0
-8 -4 5 -9z"/>
<path d="M1900 3020 c19 -13 30 -13 30 0 0 6 -10 10 -22 10 -19 0 -20 -2 -8
-10z"/>
<path d="M2234 2836 c-3 -8 -4 -29 -2 -48 l3 -33 149 -3 c161 -3 176 1 176 47
0 47 -13 51 -172 51 -118 0 -150 -3 -154 -14z m296 -36 c0 -19 -7 -20 -135
-20 -128 0 -135 1 -135 20 0 19 7 20 135 20 128 0 135 -1 135 -20z"/>
<path d="M2895 2743 c-33 -9 -65 -35 -81 -64 -19 -38 -20 -372 0 -407 21 -39
66 -62 120 -62 43 0 53 4 87 39 l39 39 0 181 c0 196 -6 223 -53 254 -27 18
-83 28 -112 20z m108 -63 l27 -30 0 -176 0 -176 -29 -29 c-23 -23 -38 -29 -71
-29 -33 0 -48 6 -71 29 l-29 29 0 179 c1 192 2 200 56 228 39 21 83 12 117
-25z"/>
<path d="M2230 2671 c-6 -12 -10 -93 -10 -195 0 -145 3 -177 16 -190 12 -13
41 -16 154 -16 180 0 170 -13 170 217 0 143 -3 174 -16 187 -13 13 -42 16
-159 16 -132 0 -145 -2 -155 -19z m295 -191 l0 -175 -135 0 -135 0 -3 178 -2
178 137 -3 138 -3 0 -175z"/>
<path d="M1419 2573 l-56 -58 51 -235 c37 -168 56 -235 66 -235 10 0 27 62 61
215 26 118 48 226 48 240 1 18 -15 41 -52 78 -29 29 -55 52 -58 52 -2 0 -30
-26 -60 -57z m103 -20 c21 -20 38 -42 38 -48 1 -24 -74 -355 -80 -355 -4 0
-24 81 -45 180 l-38 181 38 39 c22 22 41 40 44 40 3 0 22 -17 43 -37z"/>
<path d="M1750 2450 c-13 -8 -15 -46 -15 -240 0 -194 2 -232 15 -240 23 -15
293 -13 308 2 16 16 17 440 2 469 -10 17 -22 19 -153 19 -78 0 -149 -5 -157
-10z m285 -240 l0 -215 -132 -3 -133 -3 0 221 0 221 133 -3 132 -3 0 -215z"/>
<path d="M2564 1881 c-32 -19 -64 -74 -64 -110 0 -58 47 -96 105 -85 44 8 75
-22 75 -72 0 -51 -53 -104 -104 -104 -32 0 -38 5 -53 35 -22 45 -53 48 -53 5
0 -45 46 -92 91 -92 126 0 218 173 134 252 -19 18 -38 24 -74 26 -27 0 -53 4
-60 8 -16 10 -14 58 5 84 16 23 67 31 79 11 5 -7 14 -4 26 7 18 16 18 18 3 36
-22 23 -70 23 -110 -1z"/>
<path d="M2369 1817 c-23 -52 -23 -63 -3 -71 21 -8 18 -11 43 50 l20 52 -20 5
c-17 4 -24 -3 -40 -36z"/>
<path d="M2168 1797 c-109 -29 -118 -33 -118 -55 0 -26 5 -26 84 -6 l26 6 0
-197 0 -196 23 3 c22 3 22 4 25 205 l2 202 55 12 c48 11 55 15 55 36 0 29 -6
29 -152 -10z"/>
<path d="M2945 1761 c-145 -33 -160 -39 -163 -59 -2 -12 0 -22 5 -22 5 0 87
27 183 59 96 33 166 59 155 59 -11 0 -92 -17 -180 -37z"/>
<path d="M3230 1686 c-395 -100 -445 -114 -445 -132 0 -14 6 -18 25 -16 25 2
882 251 889 258 11 10 -53 -5 -469 -110z"/>
<path d="M1793 1688 l-83 -20 0 -219 c0 -126 4 -219 9 -219 36 0 41 12 41 100
0 49 3 91 8 93 4 3 21 8 37 11 29 6 32 3 75 -69 34 -56 50 -75 67 -75 12 0 24
4 27 8 2 4 -16 43 -41 85 l-45 77 32 27 c53 44 76 125 49 175 -10 18 -66 49
-86 47 -4 0 -45 -10 -90 -21z m125 -50 c7 -7 12 -29 12 -49 0 -45 -39 -83
-103 -99 -23 -6 -48 -13 -54 -15 -10 -3 -13 16 -13 75 l0 79 33 10 c46 13 111
13 125 -1z"/>
<path d="M3638 1636 c-8 -8 -20 -46 -28 -85 -7 -39 -16 -71 -19 -70 -3 0 -28
27 -56 59 -47 55 -77 72 -89 51 -3 -5 25 -42 64 -82 38 -41 72 -85 75 -99 23
-92 26 -100 45 -100 24 0 24 6 5 81 -15 57 -15 62 10 146 14 48 25 93 25 100
0 17 -15 17 -32 -1z"/>
<path d="M1427 1604 c-5 -8 -187 -494 -187 -500 0 -1 11 1 25 4 16 3 28 15 36
36 11 30 17 33 118 59 126 33 127 33 134 7 5 -21 23 -25 45 -11 10 6 0 39 -47
147 -99 232 -117 268 -124 258z m50 -221 c23 -54 40 -99 39 -101 -8 -7 -176
-48 -176 -43 0 13 85 241 90 241 3 0 24 -44 47 -97z"/>
<path d="M3335 1560 c-6 -10 -23 -145 -27 -220 l-3 -45 -70 105 c-38 57 -72
108 -75 112 -3 4 -16 5 -28 1 -28 -7 -28 -16 4 -185 18 -95 30 -138 40 -138
24 0 24 17 0 136 -14 66 -23 120 -22 121 1 2 35 -47 74 -107 39 -61 78 -110
86 -110 20 0 24 17 31 135 10 153 13 154 57 17 21 -67 42 -122 46 -122 31 1
29 21 -16 163 -42 130 -49 147 -69 147 -12 0 -24 -4 -28 -10z"/>
<path d="M1003 1482 l-63 -15 0 -223 0 -223 63 18 c129 37 177 84 185 177 4
50 2 56 -27 83 -30 28 -30 30 -16 57 33 63 9 130 -50 138 -16 3 -58 -3 -92
-12z m91 -45 c12 -9 17 -23 14 -47 -3 -36 -34 -61 -90 -75 l-28 -7 0 60 0 60
38 10 c20 5 40 10 43 11 3 1 13 -5 23 -12z m26 -175 c48 -39 19 -120 -53 -153
-74 -33 -77 -31 -77 66 0 84 0 85 28 91 15 3 32 7 37 9 24 8 44 4 65 -13z"/>
<path d="M2955 1468 c-38 -10 -75 -20 -82 -23 -8 -3 0 -49 29 -157 22 -84 41
-154 42 -155 3 -4 161 39 168 46 4 3 4 12 0 19 -6 9 -20 9 -66 -3 -31 -8 -61
-15 -65 -15 -8 0 -31 75 -31 99 0 6 19 15 43 21 67 17 78 23 68 39 -8 12 -17
12 -66 -2 -42 -12 -57 -13 -60 -4 -2 7 -8 29 -14 49 -10 41 -16 38 92 64 28 6
32 12 19 30 -5 8 -27 6 -77 -8z"/>
<path d="M2625 1384 c-27 -9 -54 -19 -58 -24 -9 -8 58 -288 72 -302 10 -11
105 17 146 42 67 42 89 135 49 215 -37 75 -111 100 -209 69z m134 -40 c47 -33
66 -127 36 -183 -16 -32 -75 -64 -107 -59 -18 3 -26 19 -50 108 -15 58 -28
111 -28 118 0 31 110 43 149 16z"/>
<path d="M2364 1312 c-10 -7 -40 -330 -31 -339 2 -2 11 -1 20 3 10 4 18 24 22
59 7 50 9 53 45 64 60 18 73 14 100 -29 22 -36 47 -50 62 -34 4 3 -35 68 -85
145 -86 132 -104 151 -133 131z m97 -164 c-3 -3 -23 -10 -43 -13 -36 -7 -38
-6 -38 17 0 14 3 46 6 71 l7 46 37 -57 c21 -31 35 -60 31 -64z"/>
<path d="M2127 1256 c-72 -26 -107 -76 -107 -151 0 -59 19 -104 59 -138 44
-36 92 -44 157 -23 58 18 67 25 55 44 -6 10 -16 9 -44 -3 -61 -25 -104 -20
-142 18 -87 87 -35 227 84 227 24 0 31 4 31 20 0 24 -35 26 -93 6z"/>
<path d="M1821 1171 c-11 -7 -18 -53 -27 -173 -7 -89 -10 -165 -8 -168 3 -2
13 1 22 6 12 8 18 27 20 62 l3 51 50 10 c66 15 61 16 89 -29 17 -28 32 -40 47
-40 13 0 23 3 23 7 0 15 -184 283 -194 283 -6 0 -17 -4 -25 -9z m97 -166 c-5
-5 -82 -25 -85 -22 -1 2 1 35 4 74 l6 72 39 -61 c21 -33 38 -62 36 -63z"/>
<path d="M1400 990 c-129 -43 -230 -79 -223 -79 21 -2 497 119 506 128 14 14
-1 31 -26 30 -12 -1 -128 -36 -257 -79z"/>
<path d="M1561 892 c-118 -42 -109 -50 29 -24 80 15 95 20 95 36 0 11 -4 21
-10 22 -5 2 -57 -14 -114 -34z"/>
</g>
</svg>
